<svg width="19" height="19" viewBox="0 0 9 9" fill="none" xmlns="http://www.w3.org/2000/svg">
<path d="M4.36214 0.422713C4.42379 0.232988 4.6922 0.232988 4.75384 0.422714L5.62138 3.09271C5.64895 3.17756 5.72801 3.235 5.81723 3.235H8.62463C8.82412 3.235 8.90706 3.49028 8.74567 3.60753L6.47444 5.25768C6.40226 5.31012 6.37206 5.40307 6.39963 5.48792L7.26716 8.15791C7.32881 8.34764 7.11166 8.50541 6.95027 8.38815L4.67904 6.738C4.60686 6.68556 4.50913 6.68556 4.43695 6.738L2.16572 8.38815C2.00433 8.50541 1.78718 8.34764 1.84882 8.15791L2.71636 5.48792C2.74393 5.40307 2.71372 5.31012 2.64155 5.25768L0.370315 3.60753C0.208925 3.49028 0.291869 3.235 0.491358 3.235H3.29876C3.38797 3.235 3.46704 3.17756 3.49461 3.09271L4.36214 0.422713Z" fill="#F1CC4A"/>
</svg>
