<svg width="14" height="14" viewBox="0 0 14 14" fill="none" xmlns="http://www.w3.org/2000/svg">
<path d="M7.11402 4.66635L7.43801 5.42418C7.45998 5.49007 7.52038 5.52851 7.58079 5.534L8.40451 5.61089C8.58024 5.62736 8.64613 5.84153 8.51983 5.95685L7.8993 6.5005C7.84987 6.54443 7.82791 6.61033 7.84438 6.67074L8.0256 7.47798C8.06404 7.64822 7.88282 7.78001 7.72906 7.69215L7.02066 7.26931C6.96575 7.23636 6.89436 7.23636 6.83944 7.26931L6.13104 7.69215C5.98277 7.78001 5.79607 7.64822 5.83451 7.47798L6.01572 6.67074C6.0322 6.61033 6.01023 6.54443 5.96081 6.5005L5.34027 5.95685C5.20848 5.84153 5.27987 5.62736 5.45559 5.61089L6.27931 5.534C6.34521 5.52851 6.40013 5.49007 6.42758 5.42967L6.75158 4.67185C6.81748 4.5071 7.04263 4.5071 7.11402 4.66635Z" stroke="#F0C932" stroke-width="0.549146" stroke-miterlimit="10" stroke-linecap="round" stroke-linejoin="round"/>
<path d="M10.6655 6.27242C10.6797 4.21008 9.01938 2.52672 6.95704 2.51252C4.8947 2.49833 3.21134 4.15868 3.19715 6.22102C3.18295 8.28336 4.8433 9.96672 6.90564 9.98091C8.96798 9.99511 10.6513 8.33476 10.6655 6.27242Z" stroke="#F0C932" stroke-width="0.549146" stroke-miterlimit="10" stroke-linecap="round" stroke-linejoin="round"/>
<path d="M6.42208 9.94364L5.49402 12.2775L4.31885 10.9321L2.5451 11.0969L3.72028 8.15343" stroke="#F0C932" stroke-width="0.549146" stroke-miterlimit="10" stroke-linecap="round" stroke-linejoin="round"/>
<path d="M7.43253 9.94366L8.36607 12.2775L9.53576 10.9321L11.315 11.0969L10.1343 8.15344" stroke="#F0C932" stroke-width="0.549146" stroke-miterlimit="10" stroke-linecap="round" stroke-linejoin="round"/>
</svg>
