<svg width="8" height="7" viewBox="0 0 8 7" fill="none" xmlns="http://www.w3.org/2000/svg">
<g clip-path="url(#clip0_1_157)">
<path d="M2.42491 6.69157V2.52335H1.02697V6.69157H2.42491ZM1.72612 1.95391C2.2136 1.95391 2.51704 1.63384 2.51704 1.23386C2.50796 0.824859 2.21362 0.513672 1.73537 0.513672C1.25719 0.513672 0.944496 0.824865 0.944496 1.23386C0.944496 1.63386 1.24786 1.95391 1.71699 1.95391H1.72608H1.72612ZM3.19866 6.69157H4.59659V4.36384C4.59659 4.23926 4.60567 4.11481 4.64259 4.02576C4.74365 3.77686 4.97366 3.51906 5.35983 3.51906C5.86568 3.51906 6.06805 3.9013 6.06805 4.46164V6.69154H7.4659V4.30153C7.4659 3.02121 6.77623 2.4255 5.85648 2.4255C5.10235 2.4255 4.77124 2.84326 4.58729 3.12779H4.59662V2.52327H3.19869C3.21703 2.91439 3.19869 6.69149 3.19869 6.69149L3.19866 6.69157Z" fill="white"/>
</g>
<defs>
<clipPath id="clip0_1_157">
<rect width="6.58976" height="6.1779" fill="white" transform="translate(0.961761 0.513916)"/>
</clipPath>
</defs>
</svg>
