<svg width="9" height="7" viewBox="0 0 9 7" fill="none" xmlns="http://www.w3.org/2000/svg">
<g clip-path="url(#clip0_1_152)">
<path d="M8.10316 1.62818C7.82848 1.74535 7.53712 1.82225 7.23878 1.85634C7.54954 1.67702 7.78814 1.39305 7.90049 1.0547C7.60508 1.22348 7.28188 1.3424 6.94485 1.40632C6.67032 1.12472 6.27922 0.94873 5.84634 0.94873C5.0152 0.94873 4.34134 1.59751 4.34134 2.39769C4.34134 2.51127 4.35467 2.62185 4.38031 2.72792C3.12956 2.66748 2.02065 2.09063 1.27837 1.21397C1.14885 1.42797 1.07464 1.67691 1.07464 1.94242C1.07464 2.44514 1.34035 2.88863 1.74414 3.14849C1.50515 3.14128 1.27142 3.07913 1.06246 2.96723C1.06237 2.9733 1.06237 2.97937 1.06237 2.98546C1.06237 3.68751 1.58113 4.27317 2.26957 4.40628C2.04795 4.46431 1.8155 4.4728 1.58995 4.43111C1.78145 5.00678 2.33725 5.42568 2.99578 5.43741C2.48072 5.82602 1.83179 6.05768 1.12673 6.05768C1.00524 6.05768 0.885463 6.05082 0.767723 6.03743C1.43373 6.44856 2.22478 6.68844 3.07466 6.68844C5.84284 6.68844 7.35655 4.4805 7.35655 2.56573C7.35655 2.50288 7.35512 2.4404 7.3522 2.37827C7.64683 2.17319 7.90113 1.91919 8.10316 1.62818Z" fill="white"/>
</g>
<defs>
<clipPath id="clip0_1_152">
<rect width="7.41348" height="5.76604" fill="white" transform="translate(0.780685 0.925903)"/>
</clipPath>
</defs>
</svg>
